<?xml version="1.0" ?><svg enable-background="new 0 0 512 512" id="Layer_1" version="1.1" viewBox="0 0 512 512" xml:space="preserve" xmlns="http://www.w3.org/2000/svg" xmlns:xlink="http://www.w3.org/1999/xlink"><g><g><linearGradient gradientUnits="userSpaceOnUse" id="SVGID_1_" x1="0.0000083" x2="512" y1="256" y2="256"><stop offset="0" style="stop-color:#FFCA05"/><stop offset="1" style="stop-color:#FAAC18"/></linearGradient><circle cx="256" cy="256" fill="url(#SVGID_1_)" r="256"/><linearGradient gradientUnits="userSpaceOnUse" id="SVGID_2_" x1="42.6666756" x2="469.333313" y1="256.0005188" y2="256.0005188"><stop offset="0" style="stop-color:#FAAC18"/><stop offset="1" style="stop-color:#FFCA05"/></linearGradient><path d="M256,469.3338623c-117.6309204,0-213.3333282-95.7023926-213.3333282-213.3333435    c0-117.6314545,95.7024078-213.333313,213.3333282-213.333313c117.636261,0,213.333313,95.7018661,213.333313,213.333313    C469.333313,373.6314697,373.636261,469.3338623,256,469.3338623z" fill="url(#SVGID_2_)"/></g><g><path d="M315.8863831,167.5018616h-28.3717346c0-12.9978638-10.4943848-23.4917297-23.4922485-23.4917297    c-13,0-23.4922638,10.493866-23.4922638,23.4917297h-28.3744049v40.681076h103.7306519V167.5018616z" opacity="0.3"/><path d="M325.8863831,187.4981384v30.683197H202.1573334v-30.683197h-35.9930573v196.4912109h195.6714478    V187.4981384H325.8863831z M203.1285248,359.4384155l-15.7429352-15.7408142l7.0693359-7.0698547l8.6735992,8.670929    l20.8800049-20.8816223l7.0693512,7.0693359L203.1285248,359.4384155z M203.1285248,315.0181274l-15.7429352-15.7402649    l7.0693359-7.0698547l8.6735992,8.670929l20.8800049-20.8821411l7.0693512,7.0698853L203.1285248,315.0181274z     M203.1285248,270.5983887l-15.7429352-15.7455902l7.0693359-7.06987l8.6735992,8.6757507l20.8800049-20.8816071    l7.0693512,7.0693207L203.1285248,270.5983887z M337.0794678,350.9477234h-92.2138672v-9.9989319h92.2138672V350.9477234z     M337.0794678,306.5280151h-92.2138672v-9.9989624h92.2138672V306.5280151z M337.0794678,262.1029358h-92.2138672v-9.9989319    h92.2138672V262.1029358z" opacity="0.3"/></g><g><path d="M307.8863831,159.5018616h-28.3717346c0-12.9978638-10.4943848-23.4917297-23.4922485-23.4917297    c-13,0-23.4922638,10.493866-23.4922638,23.4917297h-28.3744049v40.681076h103.7306519V159.5018616z" fill="#FFFFFF"/><path d="M317.8863831,179.4981384v30.683197H194.1573334v-30.683197h-35.9930573v196.4912109h195.6714478    V179.4981384H317.8863831z M195.1285248,351.4384155l-15.7429352-15.7408142l7.0693359-7.0698547l8.6735992,8.670929    l20.8800049-20.8816223l7.0693512,7.0693359L195.1285248,351.4384155z M195.1285248,307.0181274l-15.7429352-15.7402649    l7.0693359-7.0698547l8.6735992,8.670929l20.8800049-20.8821411l7.0693512,7.0698853L195.1285248,307.0181274z     M195.1285248,262.5983887l-15.7429352-15.7455902l7.0693359-7.06987l8.6735992,8.6757355l20.8800049-20.8815918    l7.0693512,7.0693207L195.1285248,262.5983887z M329.0794678,342.9477234h-92.2138672v-9.9989319h92.2138672V342.9477234z     M329.0794678,298.5280151h-92.2138672v-9.9989624h92.2138672V298.5280151z M329.0794678,254.1029358h-92.2138672v-9.9989319    h92.2138672V254.1029358z" fill="#FFFFFF"/></g></g></svg>